<?xml version="1.0" encoding="UTF-8"?>
<svg xmlns="http://www.w3.org/2000/svg" xmlns:xlink="http://www.w3.org/1999/xlink" width="75pt" height="30.000001pt" viewBox="0 0 75 30.000001" version="1.2">
<defs>
<clipPath id="clip1">
  <path d="M 1.210938 0 L 73.789062 0 L 73.789062 29.03125 L 1.210938 29.03125 Z M 1.210938 0 "/>
</clipPath>
<clipPath id="clip2">
  <path d="M 1.210938 7.59375 L 15.777344 7.59375 L 15.777344 21.363281 L 1.210938 21.363281 Z M 1.210938 7.59375 "/>
</clipPath>
<clipPath id="clip3">
  <path d="M 15.726562 7.59375 L 30.292969 7.59375 L 30.292969 21.363281 L 15.726562 21.363281 Z M 15.726562 7.59375 "/>
</clipPath>
<clipPath id="clip4">
  <path d="M 30.242188 7.59375 L 44.808594 7.59375 L 44.808594 21.363281 L 30.242188 21.363281 Z M 30.242188 7.59375 "/>
</clipPath>
<clipPath id="clip5">
  <path d="M 44.757812 7.59375 L 59.324219 7.59375 L 59.324219 21.363281 L 44.757812 21.363281 Z M 44.757812 7.59375 "/>
</clipPath>
<clipPath id="clip6">
  <path d="M 59.273438 7.59375 L 73.789062 7.59375 L 73.789062 21.363281 L 59.273438 21.363281 Z M 59.273438 7.59375 "/>
</clipPath>
</defs>
<g id="surface1">
<g clip-path="url(#clip1)" clip-rule="nonzero">
<path style=" stroke:none;fill-rule:nonzero;fill:rgb(100%,100%,100%);fill-opacity:1;" d="M 1.210938 0 L 73.789062 0 L 73.789062 36.289062 L 1.210938 36.289062 Z M 1.210938 0 "/>
<path style=" stroke:none;fill-rule:nonzero;fill:rgb(100%,100%,100%);fill-opacity:1;" d="M 1.210938 0 L 73.789062 0 L 73.789062 29.03125 L 1.210938 29.03125 Z M 1.210938 0 "/>
<path style=" stroke:none;fill-rule:nonzero;fill:rgb(100%,100%,100%);fill-opacity:1;" d="M 1.210938 0 L 73.789062 0 L 73.789062 29.03125 L 1.210938 29.03125 Z M 1.210938 0 "/>
</g>
<g clip-path="url(#clip2)" clip-rule="nonzero">
<path style=" stroke:none;fill-rule:nonzero;fill:rgb(100%,74.119568%,34.899902%);fill-opacity:1;" d="M 8.527344 18.644531 L 13.027344 21.335938 L 11.835938 16.261719 L 15.8125 12.847656 L 10.574219 12.40625 L 8.527344 7.621094 L 6.480469 12.40625 L 1.242188 12.847656 L 5.21875 16.261719 L 4.023438 21.335938 Z M 8.527344 18.644531 "/>
</g>
<g clip-path="url(#clip3)" clip-rule="nonzero">
<path style=" stroke:none;fill-rule:nonzero;fill:rgb(100%,74.119568%,34.899902%);fill-opacity:1;" d="M 23.042969 18.644531 L 27.546875 21.335938 L 26.351562 16.261719 L 30.328125 12.847656 L 25.089844 12.40625 L 23.042969 7.621094 L 20.996094 12.40625 L 15.757812 12.847656 L 19.734375 16.261719 L 18.539062 21.335938 Z M 23.042969 18.644531 "/>
</g>
<g clip-path="url(#clip4)" clip-rule="nonzero">
<path style=" stroke:none;fill-rule:nonzero;fill:rgb(100%,74.119568%,34.899902%);fill-opacity:1;" d="M 37.558594 18.644531 L 42.0625 21.335938 L 40.867188 16.261719 L 44.84375 12.847656 L 39.605469 12.40625 L 37.558594 7.621094 L 35.511719 12.40625 L 30.273438 12.847656 L 34.25 16.261719 L 33.054688 21.335938 Z M 37.558594 18.644531 "/>
</g>
<g clip-path="url(#clip5)" clip-rule="nonzero">
<path style=" stroke:none;fill-rule:nonzero;fill:rgb(85.099792%,85.099792%,85.099792%);fill-opacity:1;" d="M 52.074219 18.644531 L 56.578125 21.335938 L 55.382812 16.261719 L 59.359375 12.847656 L 54.121094 12.40625 L 52.074219 7.621094 L 50.027344 12.40625 L 44.789062 12.847656 L 48.765625 16.261719 L 47.570312 21.335938 Z M 52.074219 18.644531 "/>
</g>
<g clip-path="url(#clip6)" clip-rule="nonzero">
<path style=" stroke:none;fill-rule:nonzero;fill:rgb(85.099792%,85.099792%,85.099792%);fill-opacity:1;" d="M 66.589844 18.644531 L 71.09375 21.335938 L 69.898438 16.261719 L 73.875 12.847656 L 68.636719 12.40625 L 66.589844 7.621094 L 64.542969 12.40625 L 59.304688 12.847656 L 63.285156 16.261719 L 62.089844 21.335938 Z M 66.589844 18.644531 "/>
</g>
</g>
</svg>
